<svg xmlns="http://www.w3.org/2000/svg" viewBox="0 0 1200 760">
<defs><linearGradient id="bg" x1="0" y1="0" x2="1" y2="1"><stop stop-color="#090d1c"/><stop offset="1" stop-color="#241044"/></linearGradient><linearGradient id="glow" x1="0" y1="0" x2="1" y2="1"><stop stop-color="#8b5cf6"/><stop offset="1" stop-color="#22d3ee"/></linearGradient></defs>
<rect width="1200" height="760" rx="40" fill="url(#bg)"/><circle cx="950" cy="120" r="180" fill="#8b5cf6" opacity=".12"/><circle cx="180" cy="640" r="240" fill="#22d3ee" opacity=".06"/>
<rect x="90" y="100" width="700" height="390" rx="24" fill="#0b1224" stroke="#3b2b63"/><text x="125" y="145" fill="#c4b5fd" font-family="monospace" font-size="22">telegram-code-search</text><text x="125" y="190" fill="#93c5fd" font-family="monospace" font-size="18">$ search --category bot-code</text><text x="125" y="235" fill="#86efac" font-family="monospace" font-size="18">✓ registered bot</text><text x="125" y="270" fill="#86efac" font-family="monospace" font-size="18">✓ source verified</text><text x="125" y="305" fill="#fbbf24" font-family="monospace" font-size="18">→ finding matching listings…</text><rect x="125" y="345" width="570" height="8" rx="4" fill="#1f2937"/><rect x="125" y="345" width="390" height="8" rx="4" fill="url(#glow)"/>
<g transform="translate(790 190)"><path d="M120 40c70-75 180-25 205 50 18 55-7 106-55 135l-45 32-24 92H55l24-125-32-70c-25-55 12-92 73-114z" fill="#171827" stroke="#8b5cf6" stroke-width="6"/><path d="M100 84c34-40 106-45 145-9 25 23 32 60 12 86-33 43-118 40-153 2-24-26-25-55-4-79z" fill="#d7c9ff"/><path d="M125 104l30 18 30-20 22 20" fill="none" stroke="#111827" stroke-width="10"/><circle cx="152" cy="120" r="5" fill="#22d3ee"/><circle cx="190" cy="120" r="5" fill="#22d3ee"/><path d="M116 168c28 20 67 20 94-2" fill="none" stroke="#8b5cf6" stroke-width="7"/><path d="M60 285l-35 110m230-108l45 105" stroke="#111827" stroke-width="34" stroke-linecap="round"/><path d="M95 235h120l30 145H65z" fill="#111827" stroke="#3b2b63"/><rect x="118" y="280" width="75" height="50" rx="8" fill="#0b1224" stroke="#22d3ee"/><path d="M135 305h40" stroke="#22d3ee" stroke-width="5"/></g>
<rect x="850" y="570" width="250" height="80" rx="20" fill="#0b1224" stroke="#3b2b63"/><text x="885" y="605" fill="#fff" font-family="Inter,Arial" font-size="22" font-weight="700">Searching code</text><text x="885" y="630" fill="#a78bfa" font-family="Inter,Arial" font-size="16">Telegram marketplace</text>
</svg>
